# xmcd
#
# Track frame offsets: 
#        150
#        20274
#        56832
#        78066
#        98013
#        119472
#        135792
#        154213
#        177401
#        198761
#        220532
#        248553
#        265663
#
# Disc length: 3893 seconds
#
# Revision: 0
# Processed by: cddbd v1.5.2PL0 Copyright (c) Steve Scherf et al.
# Submitted via: ExactAudioCopy v0.99pb5
#
DISCID=9a0f330d
DTITLE=Chris Trasatti - Quit Harpin' On It
DYEAR=2012
DGENRE=Blues
TTITLE0=What's That Shakin'
TTITLE1=Sad State Of Affairs
TTITLE2=Life Took Over
TTITLE3=Old Friends
TTITLE4=Ain't Nobody Gonna Miss Me
TTITLE5=B's 2 W
TTITLE6=Chrome Plated
TTITLE7=Quit Harpin' On It
TTITLE8=Talkin' 'bout The Weather
TTITLE9=Computer Blues
TTITLE10=Gettin' It
TTITLE11=Why
TTITLE12=The Musician
EXTD=
EXTT0=
EXTT1=
EXTT2=
EXTT3=
EXTT4=
EXTT5=
EXTT6=
EXTT7=
EXTT8=
EXTT9=
EXTT10=
EXTT11=
EXTT12=
PLAYORDER=
